<svg width="80" height="80" viewBox="0 0 80 80" fill="none" xmlns="http://www.w3.org/2000/svg">
<g clip-path="url(#clip0_4135_1428)">
<rect width="80" height="80" rx="13" fill="#D3D6DA"/>
<path d="M51.0034 30.3801H50.9918V30.3917H51.0034V30.3801Z" fill="#7FA768"/>
<path d="M50.9918 31.9136V67.6694H63.9664C65.9136 67.6694 67.4976 66.1056 67.4976 64.1786V49.7209V31.9943L50.9918 31.9136Z" fill="#6AAA64"/>
<path d="M66.9225 16.3664V28.9576L51.012 28.887L51.0826 12.9562H63.5124C65.389 12.9562 66.9225 14.4898 66.9225 16.3664Z" fill="white"/>
<path d="M48.8735 50.2051V67.6492H31.5909V50.1244L48.8735 50.2051Z" fill="#6AAA64"/>
<path d="M49.115 30.794L49.0242 48.8838L30.9546 48.7829L31.0353 30.7234L49.115 30.794Z" fill="#D1B036"/>
<path d="M48.0564 12.9562L47.9858 28.8668L32.0551 28.8062V12.9562H48.0564Z" fill="white"/>
<path d="M30.3193 50.0333V67.7397H16.3762C14.2978 67.7397 12.6028 66.0447 12.6028 63.9663V50.0333H30.3193Z" fill="#6AAA64"/>
<path d="M29.0181 31.9136L28.9374 47.8241H12.9764V31.9136H29.0181Z" fill="white"/>
<path d="M29.0282 12.9562V28.887H12.9764V16.3664C12.9764 14.4898 14.5099 12.9562 16.3966 12.9562H29.0282V12.9562Z" fill="white"/>
<path d="M63.5631 10H16.4469C12.8956 10 10 12.8855 10 16.4369V63.5531C10 67.1044 12.8956 70 16.4469 70H63.5631C67.1145 70 70 67.1044 70 63.5531V16.4369C70 12.8956 67.1145 10 63.5631 10ZM51.0425 30.4607H51.0526V30.4708H51.0425V30.4607ZM13.0368 31.9943H29.0785L28.9978 47.9048H13.0368V31.9943ZM29.0785 66.9834H16.4469C14.5603 66.9834 13.0267 65.4498 13.0267 63.5631V50.9215H29.0785V66.9834ZM29.0785 28.9675H13.0368V16.4369C13.0368 14.5603 14.5704 13.0267 16.457 13.0267H29.0886V28.9675H29.0785ZM48.0158 66.9834H32.1053V50.8509L48.0158 50.9316V66.9834ZM47.9351 47.8947L32.0246 47.814L32.0952 31.9035L48.0158 31.964L47.9351 47.8947ZM48.036 28.9474L32.1053 28.8868V13.0267H48.1066L48.036 28.9474ZM66.9733 63.5631C66.9733 65.4498 65.4397 66.9834 63.5631 66.9834H51.0425V50.9215H66.9733V63.5631ZM66.9733 47.8947H50.9719L51.0425 31.9842L66.9733 32.0548V47.8947ZM66.9733 29.0382L51.0627 28.9675L51.1333 13.0368H63.5631C65.4397 13.0368 66.9733 14.5704 66.9733 16.4469V29.0382Z" fill="black"/>
</g>
<defs>
<clipPath id="clip0_4135_1428">
<rect width="80" height="80" fill="white"/>
</clipPath>
</defs>
</svg>
